<svg xmlns="http://www.w3.org/2000/svg" xmlns:xlink="http://www.w3.org/1999/xlink" xml:space="preserve" version="1.1" style="shape-rendering:geometricPrecision;text-rendering:geometricPrecision;image-rendering:optimizeQuality;" viewBox="0 0 847 1058.75" x="0px" y="0px" fill-rule="evenodd" clip-rule="evenodd"><defs><style type="text/css">
   
    .fil0 {fill:white}
   
  </style></defs><g><path class="fil0" d="M485 331c8,-12 12,-25 14,-39 32,-28 75,-40 117,-36 11,63 79,62 128,55 9,-1 14,-9 11,-17 -9,-22 -21,-43 -35,-62 27,-17 47,-74 49,-81 3,-7 -3,-16 -11,-16 -7,-1 -67,-6 -93,11 -26,17 -39,45 -31,68 -7,5 -11,9 -14,17 -21,-3 -43,-1 -64,4 3,-14 6,-33 8,-51 68,14 80,-77 76,-124 -1,-8 -9,-14 -17,-11 -26,8 -51,21 -72,37 -19,-18 -41,-34 -64,-45 -7,-4 -16,0 -18,8 -11,44 -7,164 70,131 -2,22 -6,43 -11,64 -18,8 -35,18 -49,32 -45,30 -67,29 -112,0 -14,-13 -31,-24 -49,-32 -5,-21 -9,-42 -11,-64 74,32 82,-80 70,-131 -2,-8 -11,-12 -18,-8 -24,11 -45,27 -64,45 -22,-16 -46,-29 -73,-37 -8,-3 -16,3 -16,11 -4,47 8,139 75,124 3,18 5,37 8,51 -20,-5 -41,-7 -62,-5 -3,-7 -8,-11 -14,-16 8,-23 -5,-51 -31,-68 -26,-17 -86,-12 -93,-11 -8,0 -14,9 -11,16 9,26 26,65 49,81 -14,19 -26,40 -35,62 -3,8 2,16 10,17 50,7 119,8 129,-55 41,-4 84,8 115,36 2,14 7,27 14,38 -86,-25 -168,7 -235,63 -5,4 -9,11 -9,18 -26,0 -51,6 -52,38l0 320c1,21 18,38 39,38l301 0c7,0 13,-2 19,-5 6,3 13,5 20,5l301 0c21,0 38,-17 38,-38l0 -320c0,-32 -26,-38 -51,-38 0,0 -93,-115 -246,-80zm178 -49c-14,-9 -34,-36 -14,-47 39,27 43,-22 75,53 -22,1 -49,1 -61,-6zm15 -115c22,-9 38,-9 61,-8 -9,20 -22,44 -33,51 -40,28 -71,-15 -28,-43zm-63 -88c0,23 -13,106 -52,77 6,-14 5,-32 1,-46 10,-13 36,-25 51,-31zm-125 -7c26,15 57,34 51,69 -5,34 -66,22 -51,-69zm-135 0c20,119 -75,97 -46,39 6,-12 28,-28 46,-39zm-125 7c23,9 34,14 52,31 -5,14 -5,32 1,46 -39,29 -53,-54 -53,-77zm-122 80c22,-1 49,1 60,8 43,28 15,71 -27,43 -12,-7 -24,-31 -33,-51zm75 123c-11,7 -38,7 -60,6 7,-17 17,-32 29,-46 16,4 32,2 45,-7 20,11 2,40 -14,47zm240 254c-68,-47 -67,-95 0,-142 67,47 67,95 0,142zm-43 -224c29,16 56,16 86,0 -11,20 -24,35 -43,47 -22,-14 -30,-25 -43,-47zm21 240c-20,17 -55,52 -55,89 0,17 26,17 26,0 0,-27 32,-58 51,-74 19,16 51,47 51,74 0,17 26,17 26,0 0,-37 -35,-72 -56,-89 73,-56 73,-118 0,-174 73,-65 196,-20 261,35l0 317c-87,-66 -187,-67 -282,-2 -95,-65 -195,-64 -282,2l0 -318c66,-54 188,-99 261,-34 -74,57 -76,116 -1,174zm258 178l-190 0c59,-33 131,-33 190,0zm-281 0l-190 0c59,-33 131,-33 190,0zm379 39c0,7 -6,13 -13,13l-301 0c-8,0 -9,-6 -15,-9 -4,-1 -8,-1 -12,2 -4,3 -6,7 -12,7l-301 0c-7,0 -13,-6 -13,-13l0 -320c0,-15 16,-13 26,-13l0 294c0,15 11,26 25,26 188,0 376,0 564,0 15,0 26,-11 26,-26l0 -294c10,0 26,-2 26,13l0 320z"/><path class="fil0" d="M390 432c-2,2 -2,6 0,8l59 59c2,2 5,2 7,0 2,-2 2,-6 0,-8l-58 -59c-2,-2 -6,-2 -8,0z"/><path class="fil0" d="M445 450l-30 -30c-2,-2 -5,-2 -7,0 -2,2 -2,6 0,7l29 30c3,3 6,3 8,1 2,-3 2,-6 0,-8z"/><path class="fil0" d="M438 502l-30 -30c-2,-2 -5,-2 -7,1 -2,1 -2,5 0,7l29 30c3,2 6,2 8,0 2,-2 2,-6 0,-8z"/></g></svg>
