<svg fill="currentColor" xmlns="http://www.w3.org/2000/svg" xmlns:xlink="http://www.w3.org/1999/xlink" version="1.1" x="0px" y="0px" viewBox="0 0 595.3 1052.375" style="enable-background:new 0 0 595.3 841.9;" xml:space="preserve"><g><g><path d="M434.8,767.3c-28.6-7.6-57.6-12.6-85.6-22.2c-9.3-3.2-18.6-6.7-27.7-10.4c-1.9-0.8-2-3.4-0.2-4.3    c11.8-6.3,23.3-13.3,34.1-20.9c24.8-17.5,46.2-41.9,47-73.6c0.8-33.9-22.2-63.2-48.5-81.9c-11.6-8.3-24-15.1-36.7-21.6    c-1.7-0.9-1.7-3.3,0-4.2c18.3-10,35.5-21.4,48.8-38c16.2-20.3,22.7-46.2,10.1-70.1c-12.5-23.7-37.7-38-60.1-50.8c0,0,0,0,0,0    c-1.8-1-1.6-3.6,0.3-4.3c19.2-7.5,68-23.3,80.4-28.2c24.7-9.8,48.1-23.4,70.1-38.3c18.8-12.7,38.9-26.5,53.6-43.9    c2.4-2.8,4.6-5.7,6.6-8.8c2.6-4-3.9-8.2-6.9-4.6c-5.3,6.5-35,30.5-46.3,38.8c-38.5,28.2-68.4,41.3-153.7,70.8    c-6.9,2.4-13.4,5.6-20,8.7c-0.7,0.3-1.5,0.3-2.1-0.1c-24.6-13.1-49.9-24.7-75.9-34.7c-26.7-10.3-55.8-19.6-74.5-42.7    c-3.3-4.2-9.8,0.1-6.9,4.7c14,22.7,39,33.8,62.9,43.3c26.6,10.6,52.9,21.3,78.4,34.2c1.7,0.9,1.7,3.4,0,4.3    c-3.4,1.8-6.8,3.6-10.1,5.5c-12.8,7.2-25.3,15-36.2,24.9c-10.2,9.3-18.5,21-21.8,34.6c-3.7,15.3,0.1,31,7.6,44.5    c12.6,22.5,34.2,37.6,56.6,50.2c1.7,0.9,1.6,3.4-0.1,4.2c-24.3,12.1-48.9,25.9-66.2,47.4c-17.5,21.8-26.7,51-17.4,78.2    c8.6,25.3,30.1,43.6,51.8,57.8c7.6,4.9,15.3,9.7,23.2,14.1c1.8,1,1.6,3.6-0.3,4.3c-28.6,11.1-58.1,19.8-88.3,25.2    c-8.7,1.6-17.2,3.7-25.8,5.7c-7.1,1.7-4,11.8,2.4,11.9c35.7,0.6,72.1-9.3,105.6-21c10.5-3.7,21-7.8,31.4-12.3c0.6-0.3,1.3-0.3,2,0    c12.5,5.8,25.2,11,38.1,15.5c31.8,11,65.9,20.8,99.8,20.4C441.2,779.3,441.2,769,434.8,767.3z M297.4,373.3    c0.7-0.3,1.5-0.3,2.2,0.1c9.7,5.3,19.2,10.7,28.5,16.5c1,0.6,2,1.2,2.9,1.9l-65.4-1C275.8,384.3,286.5,378.6,297.4,373.3z     M246.4,405l103.7,1.6l0-0.5c2.7,2.5,5.4,5.1,7.8,7.9c2.6,3,4.9,6.2,6.9,9.6l-132.6-2C235.9,415.3,240.8,409.9,246.4,405z     M226.1,436l144.1,2.2c0.7,3.4,0.9,6.9,0.7,10.5c-0.2,3-0.7,5.9-1.5,8.7l-143-2.2C225,449,224.7,442.5,226.1,436z M232.3,469.8    l131,2c-2.3,4-5.1,7.7-8,11.1c-2.3,2.6-4.7,5.1-7.2,7.5l-100.8-1.6C241.5,483.1,236.2,476.7,232.3,469.8z M265.5,503.6l64.5,1    c-9.9,6.5-20.5,12-31.1,17.2c-0.7,0.3-1.5,0.3-2.2,0C286,516.3,275.5,510.4,265.5,503.6z M296.1,538.9c0.8,0,1.4,0,2.2,0    c13.8,7.3,28.2,14.8,41.3,23.8l-84.4-1.3C268,552.9,282,545.9,296.1,538.9z M225.4,587.1c3.5-4.2,7.2-8,11.1-11.5l121.5,1.9    c5.6,5.3,10.7,11.1,15,17.7l-151.9-2.3C222.4,590.8,223.9,588.9,225.4,587.1z M212.9,607.1l167.8,2.6c2.5,6.1,4.1,12.6,4.7,19.1    l-178-2.9C208.4,619.5,210.3,613.2,212.9,607.1z M213.1,659.7l0,0.1c-0.1-0.2-0.2-0.3-0.3-0.5c-3.1-6.1-4.8-12.4-5.5-18.8    l177.8,2.8c-0.1,0.7-0.2,1.4-0.4,2.1c-1.3,6-3.5,11.6-6.5,16.8L213.1,659.7z M242.2,692.4c-7.1-5.3-13.8-11.3-19.4-18l144.8,2.2    c-1,1.1-2.1,2.3-3.2,3.4c-5.2,5.2-10.9,9.8-16.8,14L242.2,692.4z M296.1,722.6c-0.7,0.3-1.4,0.3-2.1,0c-8.8-4.3-17.5-8.8-26-13.7    c-1-0.5-1.9-1.1-2.9-1.7l59.5,0.9C315.3,713.3,305.8,718.1,296.1,722.6z"/></g><g><path d="M196.3,168.4c0.2,0,0.4,0,0.5,0l1.5-0.1c0.7,0.1,1.3-0.6,1.7-1.2c3-4.7,4.6-10.3,5-16    c0.5-5.6,0-11.3-0.8-16.8c0.9,1.8,1.6,3.7,2.2,5.6c1.6,5.1,2.3,10.6,2.9,15.9c0.2,2,0.5,4.1,0.5,6.1c0,0.8,0,1.6,0,2.4    c-0.1,2,1.9,3.4,3.8,2.8c1.2-0.4,2.5-0.9,3.6-1.6c41.5-26.7-26-82.3-36.2-83.5c-2.1-0.2-4.1,1.1-3.7,3.2c2,12.1-4.5,34.5-5.2,39.2    c-1.5,9.3-1.3,19.2,2.7,27.8C178.9,160.8,187,167.7,196.3,168.4z"/></g><g><path d="M469.4,203.2c0.9,0.4,1.8,0.7,2.8,0.9c1.5,0.3,2.8-0.9,2.6-2.4c-0.1-0.6-0.1-1.2-0.2-1.8    c-0.1-1.5-0.1-3.1-0.1-4.6c0.1-4.1,0.1-8.2,0.9-12.1c0.3-1.5,0.7-2.9,1.2-4.3c-0.1,4.2-0.1,8.5,0.7,12.7c0.8,4.2,2.4,8.2,5,11.5    c0.3,0.4,0.8,0.9,1.4,0.8l1.1,0c0.1,0,0.3,0,0.4,0c6.9-1.3,12.5-7.1,14.8-13.7c2.3-6.7,1.7-14.2-0.1-21c-0.9-3.4-7.6-19.7-7-28.9    c0.1-1.6-1.5-2.4-3-2.1C482.4,139.5,436.2,186.4,469.4,203.2z"/></g><g><path d="M527.2,167.8c0.2,0,0.4,0,0.6,0l1.6-0.2c0.8,0.1,1.4-0.7,1.7-1.4c2.9-5.2,4.2-11.2,4.3-17.2    c0.2-6-0.7-11.9-1.9-17.8c1,1.9,1.9,3.8,2.7,5.8c2.1,5.3,3.1,11,4.1,16.6c0.4,2.1,0.8,4.3,1,6.5c0.1,0.9,0.1,1.7,0.2,2.6    c0.1,2.1,2.2,3.5,4.2,2.7c1.3-0.5,2.6-1.1,3.7-1.9c42.2-30.9-32.7-85.4-43.6-86c-2.3-0.1-4.2,1.4-3.7,3.6    c2.9,12.6-2.5,36.8-3.1,41.8c-1,10-0.2,20.4,4.6,29.2C508.2,160.8,517.3,167.6,527.2,167.8z"/></g><g><path d="M434.2,149.1c0.2,0.1,0.4,0.1,0.6,0.1l1.8,0.1c0.9,0.3,1.7-0.4,2.2-1c4.2-4.8,6.6-10.8,7.9-17    c1.2-6.2,1.2-12.7,0.9-19.2c0.9,2.2,1.6,4.5,2.1,6.8c1.4,6.2,1.6,12.4,1.7,18.6c0.1,2.4,0.1,4.7,0,7c-0.1,0.9-0.1,1.8-0.3,2.7    c-0.3,2.3,1.9,4.3,4.3,3.9c1.5-0.2,3.1-0.5,4.5-1c53.1-21.8-22.3-98.4-34.5-101.7c-2.5-0.7-5,0.4-4.8,2.8    c1.1,14.1-9.2,38.1-10.7,43.3c-2.9,10.2-3.7,21.5,0.2,32C413.9,136.9,423,146.4,434.2,149.1z"/></g><g><path d="M449,290.5c0.5,0.2,1.2,0.3,1.6-0.1l1-0.6c0.1-0.1,0.2-0.2,0.3-0.2c5.4-4.7,7.3-12.6,5.8-19.5    c-1.5-7-5.9-13-11.1-17.9c-2.6-2.4-16.9-12.9-21.2-21c-0.7-1.4-2.5-1.3-3.7-0.2c-5.8,5.4-21.8,69.8,15.9,66.6c1-0.1,2-0.4,2.9-0.7    c1.5-0.5,2-2.3,1.1-3.4c-0.4-0.5-0.8-1-1.1-1.5c-0.9-1.3-1.7-2.6-2.5-3.9c-2.1-3.5-4.2-7-5.5-10.9c-0.5-1.4-0.9-2.9-1.2-4.4    c2.1,3.7,4.4,7.3,7.2,10.4C441.5,286.4,445,289.1,449,290.5z"/></g><g><path d="M547.1,194.8c0.3,7,4,14,10.3,17.1c0.1,0.1,0.2,0.1,0.4,0.1l1.1,0.3c0.5,0.3,1.1,0,1.5-0.3    c3.5-2.4,6.1-5.8,8.1-9.5c1.9-3.7,3.2-7.7,4.3-11.8c0.1,1.5,0.1,3,0,4.5c-0.3,4-1.4,7.9-2.5,11.8c-0.4,1.5-0.8,2.9-1.4,4.4    c-0.2,0.6-0.4,1.1-0.7,1.7c-0.6,1.4,0.3,2.9,1.9,3c1,0.1,2,0.1,2.9-0.1c36.5-6.6,5.3-63.9-1.5-67.6c-1.4-0.8-3.1-0.4-3.5,1.1    c-2,8.9-12.9,22.4-14.8,25.4C549.4,180.9,546.8,187.8,547.1,194.8z"/></g><g><path d="M271.4,340.4c7-6,23.9-10.5,27.2-11.8c6.6-2.6,12.9-6.6,16.8-12.5c3.9-5.8,5.2-13.7,2.1-20    c-0.1-0.1-0.1-0.2-0.2-0.3l-0.7-0.9c-0.2-0.5-0.9-0.6-1.4-0.6c-4.2-0.1-8.4,1.1-12.2,2.9c-3.8,1.9-7.2,4.4-10.5,7    c0.8-1.3,1.7-2.5,2.7-3.6c2.7-3.1,5.9-5.6,9.1-8c1.2-0.9,2.4-1.9,3.7-2.7c0.5-0.3,1-0.6,1.6-0.9c1.3-0.7,1.5-2.6,0.3-3.5    c-0.7-0.6-1.5-1.3-2.4-1.7c-33.2-16.3-42.9,48.6-39.6,55.7C268.6,340.7,270.2,341.4,271.4,340.4z"/></g><g><path d="M133.3,266.4c1.3,1.4,2.5,2.8,3.7,4.3c0.4,0.6,0.9,1.2,1.3,1.8c1,1.6,3.2,1.6,4.4,0.1c0.7-1,1.4-2,1.9-3.1    c17.1-42-63.1-48.2-71.4-43.6c-1.7,0.9-2.5,3-1.1,4.3c7.9,8,14.9,28.3,16.8,32.3c3.8,7.8,9.2,15.2,16.7,19.5    c7.5,4.3,17.2,5.2,24.6,0.8c0.1-0.1,0.3-0.2,0.4-0.3l1.1-0.9c0.6-0.3,0.7-1.1,0.7-1.8c-0.2-5.2-2-10.2-4.6-14.7    c-2.6-4.5-6-8.5-9.5-12.3c1.6,0.9,3.2,1.9,4.6,3C126.7,258.9,130,262.7,133.3,266.4z"/></g><g><path d="M178.9,291.6c0.2,0.7,0.6,1.5,1.4,1.6l1.4,0.5c0.2,0.1,0.3,0.1,0.5,0.1c9.4,1.7,19.2-3,25.3-10.3    c6.2-7.4,9-17.1,9.9-26.7c0.5-4.8-0.1-28.6,5-39.9c0.9-2-0.7-3.8-2.8-4.1c-10.4-1.5-91.2,35.7-57.3,72.7c0.9,1,2,1.7,3.1,2.5    c1.7,1.1,4,0.2,4.5-1.8c0.2-0.8,0.4-1.6,0.6-2.4c0.6-2,1.4-3.9,2.1-5.9c2-5.1,4-10.3,7-14.9c1.1-1.7,2.3-3.4,3.6-4.9    c-2.2,5.3-4.1,10.7-5.1,16.4C177.1,280.3,177.1,286.2,178.9,291.6z"/></g><g><path d="M177.4,329.6c0.2-0.6,0.3-1.3,0.6-1.9c0.5-1.5-0.7-3.1-2.3-3c-1.1,0-2.1,0.1-3.1,0.4    c-38.2,11.2,1.3,69.6,9,72.8c1.6,0.7,3.4,0.1,3.6-1.6c1.2-9.8,11.3-25.7,13-29.1c3.3-6.9,5.4-14.6,4.3-22.1    c-1.1-7.5-5.8-14.7-12.9-17.4c-0.1-0.1-0.3-0.1-0.4-0.1l-1.2-0.2c-0.5-0.3-1.1,0.1-1.6,0.5c-3.4,3-5.9,7-7.5,11.2    s-2.6,8.7-3.3,13.2c-0.3-1.6-0.4-3.2-0.5-4.8c-0.1-4.4,0.6-8.7,1.4-13C176.7,332.9,177,331.2,177.4,329.6z"/></g><g><path d="M492.2,239.3c1.5,1,3,2.1,4.4,3.3c0.6,0.5,1.1,0.9,1.6,1.4c1.3,1.2,3.4,0.8,4.1-0.9    c0.5-1.1,0.9-2.2,1.1-3.3c6.8-43.2-69.9-31.3-76.7-25.2c-1.4,1.3-1.7,3.3-0.1,4.3c9.2,5.8,20.2,23.3,22.9,26.6    c5.3,6.5,12,12.2,20,14.6c8,2.4,17.3,1.1,23.3-4.7c0.1-0.1,0.2-0.2,0.3-0.4l0.8-1.1c0.5-0.4,0.4-1.2,0.2-1.8    c-1.4-4.8-4.2-9.1-7.6-12.8s-7.5-6.6-11.6-9.4c1.7,0.5,3.4,1.1,5,1.8C484.3,233.7,488.3,236.5,492.2,239.3z"/></g><g><path d="M515.2,263.3c-0.9,0.4-1.7,1-2.4,1.6c-1.2,1-1.1,2.8,0.3,3.5c0.5,0.3,1,0.6,1.5,1c1.3,0.9,2.5,1.8,3.7,2.8    c3.2,2.5,6.3,5.1,8.9,8.2c1,1.2,1.9,2.4,2.6,3.7c-3.2-2.7-6.6-5.3-10.4-7.2c-3.8-1.9-7.9-3.2-12.1-3.2c-0.6,0-1.2,0.1-1.4,0.6    l-0.7,0.9c-0.1,0.1-0.2,0.2-0.2,0.3c-3.3,6.2-2.2,14.1,1.6,20.1c3.8,6,10,10.1,16.6,12.9c3.3,1.4,20.1,6.3,27,12.4    c1.2,1.1,2.8,0.4,3.5-1.1C557,312.8,548.7,247.7,515.2,263.3z"/></g><g><path d="M593.4,216c-0.5-1.6-2.1-2.7-3.5-1.7c-8.2,5.3-26.8,7.6-30.5,8.5c-7.3,1.8-14.5,5.1-19.6,10.7    c-5,5.6-7.5,13.7-5.1,20.8c0,0.1,0.1,0.3,0.2,0.4l0.6,1.1c0.1,0.6,0.8,0.8,1.4,0.9c4.4,0.7,9,0.1,13.3-1.3    c4.3-1.4,8.3-3.5,12.1-5.9c-1,1.2-2.2,2.3-3.4,3.4c-3.3,2.8-7,5-10.8,7.1c-1.4,0.8-2.8,1.6-4.3,2.3c-0.6,0.3-1.2,0.5-1.8,0.8    c-1.5,0.6-1.9,2.5-0.9,3.7c0.7,0.8,1.4,1.6,2.3,2.1C576.2,291,595.8,223.9,593.4,216z"/></g><g><path d="M517.9,234.7c0.1,0,0.2,0,0.4,0l1.1,0c0.5,0.1,1-0.3,1.3-0.7c2.4-3.2,3.8-7,4.4-10.9s0.6-7.9,0.4-11.9    c0.5,1.3,0.9,2.7,1.3,4c0.9,3.7,1,7.5,1.1,11.3c0.1,1.4,0.1,2.9,0,4.3c0,0.6-0.1,1.1-0.1,1.7c-0.2,1.4,1.1,2.5,2.5,2.2    c0.9-0.2,1.8-0.5,2.6-0.9c30.6-16.4-13.6-59.2-20.7-60.5c-1.5-0.3-2.9,0.5-2.8,2c0.8,8.6-5.1,23.9-5.9,27.2    c-1.6,6.5-2,13.4,0.3,19.6C506.1,228.3,511.4,233.6,517.9,234.7z"/></g><g><path d="M241,348.6c0-0.6-0.1-1.3-0.6-1.5l-0.9-0.7c-0.1-0.1-0.2-0.2-0.3-0.2c-6.4-3.4-14.7-2.3-20.8,1.6    c-6.2,4-10.5,10.4-13.4,17.2c-1.4,3.4-6.5,20.9-12.9,28c-1.1,1.2-0.4,2.9,1.1,3.6c7.2,3.5,74.8-4.9,58.7-39.7    c-0.4-0.9-1.1-1.7-1.7-2.5c-1-1.2-2.9-1.1-3.7,0.3c-0.3,0.5-0.7,1.1-1,1.6c-0.9,1.3-1.9,2.6-2.9,3.8c-2.7,3.3-5.3,6.6-8.6,9.3    c-1.2,1-2.5,1.9-3.8,2.7c2.8-3.4,5.5-6.9,7.5-10.8C239.7,357.3,241,353,241,348.6z"/></g><g><path d="M73.3,220.1c1.5,0.1,3.1-0.2,4.7-0.4c2.4-0.4,3.6-3.1,2.4-5.2c-0.5-0.8-1-1.7-1.4-2.6    c-1.1-2.2-2.1-4.5-3-6.8c-2.5-6-5-12.1-6.2-18.5c-0.5-2.4-0.8-4.8-0.9-7.2c2.5,6.3,5.2,12.6,9,18.2s8.7,10.6,14.7,13.9    c0.8,0.4,1.8,0.8,2.5,0.3l1.7-0.7c0.2-0.1,0.4-0.2,0.6-0.3c9.4-6.2,14-18.3,13.2-29.5c-0.8-11.4-6.3-22-13.4-30.9    c-3.6-4.5-23.6-24.4-28.5-38.3c-0.9-2.4-3.7-2.7-5.8-1.2C52.6,118,13.9,216.1,73.3,220.1z"/></g><g><path d="M155.4,317.2c0-0.2-0.1-0.3-0.2-0.5l-0.6-1.2c-0.1-0.7-0.9-0.9-1.5-1.1c-5-1.2-10.2-0.8-15.1,0.5    c-4.9,1.3-9.6,3.4-14.1,5.7c1.3-1.3,2.6-2.5,4.1-3.6c3.9-3,8.3-5.1,12.7-7.3c1.7-0.8,3.3-1.6,5.1-2.3c0.7-0.3,1.4-0.5,2.1-0.7    c1.7-0.6,2.4-2.7,1.2-4.1c-0.7-0.9-1.5-1.9-2.4-2.6c-35.3-27.3-62.4,47-60.2,56.1c0.4,1.9,2.1,3.1,3.8,2.2    c9.7-5.4,30.8-6.6,35-7.4c8.4-1.5,16.8-4.7,22.9-10.7C154.2,334.4,157.6,325.4,155.4,317.2z"/></g><g><path d="M332.6,318.8c1.4,1.7,9.4,9.3,11.4,14.7c0.4,0.9,1.5,1,2.3,0.4c3.9-2.9,18.1-41.5-5.1-42.5    c-0.6,0-1.2,0.1-1.8,0.2c-0.9,0.2-1.4,1.2-0.9,2c0.2,0.3,0.4,0.6,0.6,1c0.5,0.8,0.8,1.7,1.2,2.6c1,2.3,2,4.7,2.6,7.1    c0.2,0.9,0.3,1.9,0.4,2.8c-1-2.4-2.2-4.9-3.7-7s-3.5-4.1-5.8-5.3c-0.3-0.2-0.7-0.3-1-0.1l-0.6,0.3c-0.1,0-0.1,0.1-0.2,0.1    c-3.6,2.5-5.3,7.2-4.9,11.6C327.5,311.3,329.7,315.4,332.6,318.8z"/></g><g><path d="M244.1,322.8c-0.1,0.7-0.2,1.4-0.3,2.1c-0.3,1.7,1.2,3.2,2.9,3c1.1-0.2,2.3-0.4,3.3-0.9    c39.6-17.5-11.3-74.9-20.1-77.3c-1.8-0.5-3.7,0.4-3.6,2.2c0.1,10.7-8.6,29.3-9.9,33.3c-2.6,7.9-3.7,16.5-1.4,24.5    c2.3,7.9,8.4,15,16.4,16.9c0.2,0,0.3,0.1,0.5,0.1l1.3,0.1c0.6,0.2,1.2-0.3,1.6-0.8c3.3-3.7,5.4-8.3,6.5-13.1    c1.2-4.8,1.5-9.8,1.6-14.7c0.5,1.7,0.9,3.4,1.2,5.1c0.7,4.7,0.5,9.5,0.3,14.2C244.3,319.3,244.3,321.1,244.1,322.8z"/></g><g><path d="M374.9,358.9c-0.8-1.8-1.6-3.6-2.3-5.5c-0.3-0.7-0.5-1.5-0.7-2.2c-0.5-1.9-2.8-2.6-4.3-1.5    c-1,0.7-2,1.5-2.8,2.5c-30.5,36.7,48,68.4,57.8,66.5c2-0.4,3.4-2.2,2.5-4c-5.4-10.5-5.9-33.2-6.6-37.7    c-1.3-9.1-4.4-18.1-10.6-24.9c-6.1-6.7-15.7-10.7-24.5-8.6c-0.2,0-0.3,0.1-0.5,0.2l-1.3,0.6c-0.7,0.1-1,0.9-1.2,1.6    c-1.4,5.3-1.2,10.9,0,16.2c1.2,5.3,3.3,10.4,5.6,15.3c-1.3-1.4-2.6-2.9-3.7-4.5C379.2,368.4,377,363.6,374.9,358.9z"/></g><g><path d="M435.9,323.9c-0.9,0-1.9,0.2-2.8,0.5c-1.4,0.4-2,2-1.2,3.2c0.3,0.5,0.7,1,1,1.5c0.8,1.3,1.4,2.6,2.1,3.9    c1.7,3.5,3.5,7,4.5,10.8c0.4,1.4,0.7,2.8,0.8,4.3c-1.7-3.7-3.6-7.3-6.2-10.5c-2.5-3.2-5.6-6-9.3-7.7c-0.5-0.2-1.1-0.4-1.5-0.1    l-1,0.5c-0.1,0.1-0.2,0.1-0.3,0.2c-5.4,4.1-7.6,11.5-6.7,18.2c0.9,6.8,4.7,12.9,9.3,18c2.3,2.5,15.1,13.6,18.6,21.8    c0.6,1.4,2.3,1.4,3.5,0.5C452.4,384.2,471.6,323.8,435.9,323.9z"/></g><g><path d="M480.1,296.3c-0.9,0.4-1.7,1-2.5,1.7c-1.2,1-1.1,2.9,0.2,3.7c0.5,0.3,1.1,0.7,1.6,1c1.3,0.9,2.5,2,3.8,3    c3.2,2.7,6.5,5.4,9.2,8.7c1,1.2,1.9,2.5,2.7,3.8c-3.3-2.9-6.8-5.6-10.7-7.7c-3.9-2.1-8.2-3.5-12.6-3.5c-0.6,0-1.3,0.1-1.5,0.6    l-0.7,0.9c-0.1,0.1-0.2,0.2-0.2,0.3c-3.5,6.4-2.5,14.7,1.4,20.9c3.9,6.3,10.3,10.7,17,13.6c3.4,1.5,20.9,6.8,27.9,13.3    c1.2,1.1,2.9,0.4,3.7-1.1C522.9,348.5,515.3,280.6,480.1,296.3z"/></g><g><path d="M496.8,362.2c-1.7-5.2-4.5-10.3-8.9-13.6c-4.3-3.3-10.4-4.6-15.4-2.5c-0.1,0-0.2,0.1-0.3,0.1l-0.7,0.5    c-0.4,0.1-0.5,0.7-0.6,1.1c-0.3,3.3,0.5,6.6,1.7,9.6c1.3,3,3.1,5.8,5,8.5c-0.9-0.7-1.8-1.4-2.7-2.3c-2.2-2.2-4-4.8-5.8-7.4    c-0.7-1-1.4-2-1.9-3c-0.2-0.4-0.5-0.8-0.7-1.2c-0.5-1.1-1.9-1.3-2.7-0.4c-0.5,0.5-1,1.1-1.4,1.8c-14.1,25,35.7,35.3,41.3,33.1    c1.2-0.5,1.8-1.7,1-2.6C500.4,378.1,497.7,364.8,496.8,362.2z"/></g><g><path d="M298.7,270.7c0.1-0.1,0.2-0.2,0.3-0.3l0.9-1c0.5-0.4,0.5-1.2,0.4-1.8c-0.9-5-3.3-9.6-6.4-13.6    c-3.1-4-6.9-7.4-10.8-10.6c1.7,0.7,3.3,1.4,4.9,2.3c4.2,2.4,7.9,5.6,11.6,8.7c1.4,1.2,2.8,2.4,4.1,3.7c0.5,0.5,1,1,1.5,1.6    c1.2,1.4,3.4,1.1,4.2-0.5c0.6-1,1.1-2.1,1.4-3.2c11-42.9-67.3-38.4-74.8-32.9c-1.5,1.1-2,3.2-0.5,4.4c8.7,6.7,18.1,25.5,20.5,29    c4.7,7.1,10.9,13.5,18.7,16.7C282.6,276.3,292.2,275.9,298.7,270.7z"/></g><g><path d="M368.9,293.5c5.9-0.3,11.5-3.1,16.3-6.7c2.4-1.8,12.9-12.1,20.3-14.5c1.3-0.4,1.4-1.9,0.7-3    c-3.7-5.4-54.5-26.5-57.1,4.5c-0.1,0.8,0.1,1.6,0.2,2.4c0.2,1.3,1.6,1.9,2.7,1.3c0.4-0.3,0.9-0.5,1.3-0.7c1.2-0.6,2.4-1,3.6-1.5    c3.2-1.2,6.4-2.5,9.7-3.1c1.2-0.2,2.5-0.4,3.8-0.4c-3.3,1.2-6.6,2.6-9.6,4.5c-3,1.9-5.6,4.4-7.4,7.5c-0.2,0.4-0.4,0.9-0.2,1.3    l0.4,0.9c0,0.1,0.1,0.2,0.2,0.3C356.8,291.3,363,293.8,368.9,293.5z"/></g><g><path d="M328.7,258.6c1.4,0.8,3.1,0,3.4-1.6c0.1-0.6,0.2-1.3,0.4-1.9c0.4-1.6,0.9-3.1,1.4-4.7    c1.3-4.1,2.6-8.2,4.7-12c0.8-1.4,1.6-2.7,2.6-4c-1.4,4.2-2.7,8.6-3.2,13c-0.5,4.4-0.1,9,1.5,13.2c0.2,0.5,0.6,1.2,1.2,1.2l1.1,0.3    c0.1,0,0.3,0.1,0.4,0.1c7.4,0.9,14.8-3.3,19.2-9.3c4.4-6.1,6.1-13.8,6.3-21.3c0.1-3.8-1.6-22.3,1.9-31.4c0.6-1.6-0.7-2.9-2.4-3    c-8.2-0.7-69.2,32.4-41,59.6C326.9,257.6,327.8,258.1,328.7,258.6z"/></g><g><path d="M143.6,236c1.3,0.4,2.7,0.6,4,0.7c2.1,0.2,3.8-1.8,3.2-3.8c-0.2-0.8-0.4-1.7-0.6-2.5    c-0.4-2.1-0.7-4.3-1-6.4c-0.7-5.7-1.4-11.4-1-17.1c0.2-2.1,0.5-4.2,0.9-6.3c0.6,5.9,1.5,11.9,3.4,17.5s4.9,11,9.2,15.1    c0.6,0.5,1.3,1.1,2.1,0.8l1.6-0.2c0.2,0,0.4-0.1,0.5-0.1c9.4-3.1,16.1-12.2,18-21.9c2-9.8-0.2-20.1-4.2-29.3    c-2-4.6-14.3-26.1-15.2-39c-0.2-2.3-2.5-3.1-4.6-2.3C149.8,144.9,94.3,218.8,143.6,236z"/></g><g><path d="M337.9,184.8c1,1.6,2.1,3.2,3,4.9c0.4,0.7,0.7,1.3,1,2c0.8,1.7,3,2.1,4.3,0.8c0.9-0.9,1.7-1.7,2.4-2.8    c23.9-39.4-55.5-58.5-64.5-55.3c-1.9,0.7-3,2.6-1.8,4.2c6.6,9.3,10.4,30.8,11.6,35.1c2.5,8.5,6.8,16.7,13.6,22.2    c6.8,5.5,16.4,8,24.6,4.8c0.2-0.1,0.3-0.1,0.4-0.2l1.2-0.7c0.7-0.2,0.9-1,0.9-1.7c0.6-5.2-0.4-10.5-2.3-15.5    c-1.9-4.9-4.6-9.5-7.5-13.8c1.5,1.2,2.9,2.4,4.2,3.8C332.5,176.2,335.2,180.5,337.9,184.8z"/></g><g><path d="M448.3,193.5c1.6-0.5,1.8-2.3,0.9-3.6c-4.5-6.3-67.7-30.6-71.4,6.4c-0.1,1,0,1.9,0.2,2.9    c0.2,1.5,2,2.3,3.3,1.5c0.6-0.3,1.1-0.6,1.7-0.9c1.5-0.7,3-1.3,4.5-1.9c4-1.5,8-3.1,12.2-3.9c1.6-0.3,3.1-0.5,4.7-0.6    c-4.2,1.5-8.3,3.2-12,5.6c-3.7,2.4-7.1,5.4-9.3,9.1c-0.3,0.5-0.6,1.1-0.2,1.6l0.4,1c0.1,0.1,0.1,0.2,0.2,0.4    c3.9,5.9,11.6,8.7,19,8.3c7.4-0.5,14.4-3.9,20.4-8.3C425.9,208.9,439.2,196.5,448.3,193.5z"/></g><g><path d="M367.1,175.7c1,0.6,2.2,0.9,3.4,1.2c1.8,0.5,3.5-1,3.3-2.8c-0.1-0.7-0.1-1.5-0.2-2.2    c-0.1-1.9,0-3.8,0.1-5.7c0.2-5,0.4-10,1.6-14.8c0.4-1.8,1-3.6,1.7-5.3c-0.3,5.2-0.4,10.4,0.4,15.5c0.8,5.1,2.6,10.2,5.7,14.3    c0.4,0.5,1,1.1,1.6,1l1.4,0c0.2,0,0.3,0,0.5,0c8.5-1.3,15.5-8.2,18.6-16.2c3.1-8.1,2.7-17.2,0.6-25.7c-1-4.3-8.5-24.4-7.4-35.6    c0.2-2-1.7-3-3.6-2.7C385.5,98.4,327.3,153.9,367.1,175.7z"/></g><g><path d="M269.2,127.4c-9.9,1.2-74.6,55.9-34.1,81.3c1.1,0.7,2.3,1.1,3.5,1.5c1.9,0.6,3.7-0.8,3.7-2.8    c0-0.8,0-1.6,0-2.4c0-2,0.3-4,0.5-6c0.5-5.2,1.1-10.5,2.6-15.5c0.6-1.9,1.3-3.7,2.1-5.4c-0.7,5.4-1.1,10.9-0.5,16.3    c0.5,5.4,2.1,10.8,5.1,15.4c0.4,0.6,1,1.3,1.7,1.1l1.4,0.1c0.2,0,0.3,0,0.5,0c9-0.8,16.8-7.6,20.6-15.9c3.8-8.4,3.9-18,2.3-27    c-0.8-4.5-7.4-26.2-5.5-37.9C273.1,128.4,271.2,127.1,269.2,127.4z"/></g><g><path d="M97.9,289.8c0-0.1-0.1-0.3-0.1-0.4l-0.5-1.1c-0.1-0.6-0.8-0.8-1.3-1c-4.4-1.1-9-0.8-13.3,0.3    c-4.4,1.1-8.5,2.9-12.5,4.9c1.1-1.1,2.3-2.2,3.6-3.1c3.5-2.6,7.4-4.4,11.3-6.3c1.5-0.7,3-1.4,4.5-2c0.6-0.2,1.2-0.4,1.8-0.6    c1.5-0.5,2.1-2.3,1.1-3.6c-0.6-0.8-1.3-1.7-2.1-2.3c-30.8-24.4-55.4,40.7-53.6,48.7c0.4,1.7,1.8,2.8,3.3,2    c8.6-4.6,27.2-5.5,30.9-6.1c7.4-1.2,14.8-4,20.3-9.2C96.7,305,99.8,297.1,97.9,289.8z"/></g><g><path d="M72.3,259.5c0.4-0.7,0.6-1.5,0.9-2.3c0.3-1.2-0.6-2.4-1.9-2.3c-0.5,0-1,0.1-1.5,0.1    c-1.3,0-2.6-0.1-3.9-0.2c-3.4-0.2-6.8-0.5-10.2-1.3c-1.2-0.3-2.4-0.7-3.6-1.2c3.6,0.3,7.1,0.4,10.7,0c3.5-0.5,7-1.6,9.9-3.7    c0.4-0.3,0.8-0.7,0.7-1.1l0-0.9c0-0.1,0-0.2,0-0.3c-0.7-5.9-5.4-10.8-10.9-13c-5.5-2.3-11.8-2.1-17.7-0.8    c-2.9,0.6-16.9,5.5-24.6,4.5c-1.3-0.2-2.1,1.1-1.9,2.4C19.4,245.6,56.7,286.6,72.3,259.5z"/></g><g><path d="M108.9,149.9c1.2,0.7,2.6,1.1,3.9,1.5c2.1,0.6,4.2-1,4-3.2c-0.1-0.9-0.1-1.8-0.1-2.6    c0-2.2,0.2-4.5,0.3-6.7c0.5-5.9,0.9-11.8,2.5-17.5c0.6-2.1,1.3-4.2,2.2-6.2c-0.6,6.1-0.9,12.3-0.2,18.4c0.8,6.1,2.6,12.1,6.1,17.2    c0.5,0.7,1.1,1.4,1.9,1.2l1.6,0.1c0.2,0,0.4,0,0.6,0c10.1-1.2,18.7-9,22.7-18.4c4-9.5,3.9-20.3,1.8-30.4c-1-5.1-9-29.3-7.3-42.5    c0.3-2.3-1.9-3.6-4.2-3.3C133.9,59.2,62.6,122.5,108.9,149.9z"/></g><g><path d="M213.3,91.7c4.6,10.6,11.4,20.6,21.2,26.7c9.7,6.1,22.6,7.7,32.6,2.3c0.2-0.1,0.4-0.2,0.5-0.4l1.4-1.1    c0.8-0.4,1-1.5,1-2.4c0-6.9-2.2-13.6-5.4-19.7c-3.2-6.1-7.5-11.5-11.9-16.7c2.1,1.3,4.1,2.7,6,4.2c5.1,4.2,9.3,9.3,13.5,14.4    c1.6,1.9,3.2,3.9,4.6,5.9c0.6,0.8,1.1,1.6,1.6,2.5c1.3,2.1,4.2,2.3,5.8,0.3c1-1.2,2-2.5,2.6-3.9c24.8-54.8-81.1-67.1-92.4-61.4    c-2.3,1.2-3.5,3.8-1.7,5.7C202.8,59.1,211,86.3,213.3,91.7z"/></g><g><path d="M306.4,118.1c1.3,1.7,3.9,1.7,5.1-0.1c0.5-0.7,1-1.4,1.5-2.1c1.3-1.8,2.8-3.4,4.3-5.1    c3.8-4.4,7.7-8.8,12.3-12.3c1.7-1.3,3.5-2.5,5.4-3.6c-4.1,4.5-8,9.2-11,14.5c-3,5.3-5.1,11.2-5.3,17.2c0,0.8,0.1,1.8,0.8,2.1    l1.2,1c0.1,0.1,0.3,0.2,0.5,0.3c8.7,5.1,20.2,4,28.9-1.1c8.8-5.1,15.1-13.8,19.5-23c2.2-4.6,10.2-28.5,19.4-38    c1.6-1.6,0.7-4-1.3-5.1c-9.8-5.3-103.7,2.6-83.4,51.7C304.7,115.8,305.5,117,306.4,118.1z"/></g></g></svg>
